<svg xmlns="http://www.w3.org/2000/svg" viewBox="0 0 512 512"><defs><linearGradient id="a" x1="85.37" x2="426.63" y1="426.63" y2="85.37" gradientUnits="userSpaceOnUse"><stop offset="0" stop-color="#fbc0ff"/><stop offset=".13" stop-color="#f1befd"/><stop offset=".35" stop-color="#d8baf9"/><stop offset=".63" stop-color="#aeb4f1"/><stop offset=".96" stop-color="#75abe8"/><stop offset=".99" stop-color="#6faae7"/></linearGradient></defs><path d="M404 76H180c-17.67 0-32 14.33-32 32v40h-40c-17.67 0-32 14.33-32 32v224c0 17.67 14.33 32 32 32h224c17.67 0 32-14.33 32-32v-40h40c17.67 0 32-14.33 32-32V108c0-17.67-14.33-32-32-32Zm5 256c0 2.76-2.24 5-5 5h-40V180c0-17.67-14.33-32-32-32H175v-40c0-2.76 2.24-5 5-5h224c2.76 0 5 2.24 5 5v224Z" style="fill:url(#a)"/></svg>