<svg xmlns="http://www.w3.org/2000/svg" xmlns:xlink="http://www.w3.org/1999/xlink" viewBox="0 0 512 512"><defs><linearGradient id="a" x1="124.24" x2="404.65" y1="424.9" y2="144.49" gradientUnits="userSpaceOnUse"><stop offset="0" stop-color="#fbc0ff"/><stop offset=".13" stop-color="#f1befd"/><stop offset=".35" stop-color="#d8baf9"/><stop offset=".63" stop-color="#aeb4f1"/><stop offset=".96" stop-color="#75abe8"/><stop offset=".99" stop-color="#6faae7"/></linearGradient><linearGradient xlink:href="#a" id="b" x1="232.68" x2="279.32" y1="193.16" y2="146.52"/></defs><path d="M424.75 169.25H301c-6.21 0-11.25 5.04-11.25 11.26v22.53h-20.31v90.88l28.63-28.72c5.25-5.26 13.75-5.26 19 0s5.25 13.8 0 19.06l-51.37 51.55a13.364 13.364 0 0 1-9.69 3.94c-3.5.05-7.02-1.26-9.69-3.94l-51.37-51.55c-5.25-5.26-5.25-13.8 0-19.06 5.25-5.26 13.75-5.26 19 0l28.63 28.72v-90.88H87.25c-6.21 0-11.25 5.04-11.25 11.26v157.68c0 6.22 5.04 11.26 11.25 11.26h337.5c6.21 0 11.25-5.04 11.25-11.26V180.51c0-6.22-5.04-11.26-11.25-11.26Z" style="fill:url(#a)"/><path d="M269.44 142.23c0-7.45-6.02-13.48-13.44-13.48s-13.44 6.04-13.44 13.48v60.81h26.87v-60.81Z" style="fill:url(#b)"/></svg>