<svg xmlns="http://www.w3.org/2000/svg" xmlns:xlink="http://www.w3.org/1999/xlink" viewBox="0 0 512 512"><defs><linearGradient id="a" x1="176.48" x2="293.44" y1="314.48" y2="197.52" gradientUnits="userSpaceOnUse"><stop offset="0" stop-color="#fbc0ff"/><stop offset=".13" stop-color="#f1befd"/><stop offset=".35" stop-color="#d8baf9"/><stop offset=".63" stop-color="#aeb4f1"/><stop offset=".96" stop-color="#75abe8"/><stop offset=".99" stop-color="#6faae7"/></linearGradient><linearGradient xlink:href="#a" id="b" x1="128.85" x2="383.09" y1="383.04" y2="128.8"/></defs><path d="m331.13 236.33-107.55-62.09c-15.14-8.74-34.07 2.19-34.07 19.67v124.18c0 17.48 18.93 28.41 34.07 19.67l107.55-62.09c15.14-8.74 15.14-30.6 0-39.34Z" style="fill:url(#a)"/><path d="M256 76h-2.28l-.11.02h-.86c-1.92.05-3.84.11-5.75.21-9.93.49-17.58 8.93-17.09 18.86.47 9.63 8.43 17.12 17.96 17.12.3 0 .6 0 .9-.02 2.39-.12 4.82-.18 7.23-.18 9.94 0 18-8.06 18-18s-8.06-18-18-18Zm-70.47 16.08c-2.63 0-5.3.58-7.83 1.8-1.35.65-2.69 1.32-4.03 2.01l-.12.06h-.01l-.11.06h-.02l-.1.06h-.03l-.09.06-.04.02-.09.05-.04.02-.08.04-.04.02-.08.04-.05.02-.07.04-.05.03-.07.04-.05.03-.07.03-.06.03-.06.03-.06.03-.06.03-.06.03-.06.03-.06.03-.05.03-.07.04-.05.03-.08.04-.04.02-.09.05-.03.02-.09.05h-.02l-.1.07h-.01c-.58.32-1.15.63-1.72.94-8.69 4.78-11.88 15.7-7.11 24.41 3.27 5.98 9.44 9.36 15.81 9.36 2.92 0 5.88-.71 8.63-2.21 2.09-1.15 4.25-2.26 6.39-3.29 8.95-4.33 12.69-15.09 8.36-24.04-3.11-6.42-9.53-10.16-16.22-10.16Zm-56.42 45.22c-5.29 0-10.54 2.32-14.09 6.78l-.04.05-.02.02-.07.09v.02l-.09.09v.02l-.08.09v.02l-.09.09c-.22.28-.44.56-.66.85l-.07.09-.02.02-.06.08-.02.03-.06.08-.03.03-.06.08-.02.03-.06.08-.02.03-.06.07-.03.03-.06.07-.03.04-.05.07-.03.04-.05.07-.03.04-.05.07-.03.04-.05.07-.03.04-.05.07-.03.04-.05.07-.03.04-.05.07-.03.04-.05.07-.04.05-.05.06-.03.04-.05.07-.03.04-.05.07-.03.04-.05.07-.03.04-.05.07-.02.03c-.06.09-.13.17-.19.26l-.03.04-.04.05-.04.06-.04.06-.04.06-.04.05-.04.06-.04.05-.05.06-.04.05-.04.06-.04.05-.04.06-.04.06-.04.05-.04.05-.04.06-.04.05-.04.06-.04.06-.04.06-.04.06-.04.05-.04.05-.04.06-.04.06-.04.05-.04.06-.04.05-.05.06-.04.05-.04.06-.04.05-.04.06-.04.05-.04.06-.04.05-.05.06-.04.05-.04.06-.04.05-.05.06-.03.04-.05.07-.02.03-.06.08c-.13.19-.26.36-.39.55-.05.07-.1.14-.15.22l-.08.11-.03.05c-5.77 8.08-3.91 19.31 4.16 25.09 3.18 2.28 6.84 3.37 10.47 3.37 5.61 0 11.13-2.61 14.65-7.52 1.39-1.94 2.85-3.88 4.34-5.75 6.19-7.78 4.89-19.11-2.89-25.29a17.927 17.927 0 0 0-11.19-3.91Zm-31.22 65.17c-8.24 0-15.68 5.7-17.55 14.08-.14.64-.28 1.28-.42 1.91l-.03.14-.03.13-.03.14-.03.13v.02l-.03.13-.03.13v.02l-.03.12-.03.14-.03.14-.03.13-.03.14c0 .05-.02.09-.03.14 0 .05-.02.1-.03.14l-.03.13c-.02.1-.04.19-.05.28l-.48 2.48-.02.14-.02.13-.02.13v.02l-.02.1v.04l-.02.09v.05l-.02.08v.07l-.02.06v.08l-.02.04-.02.1c-.07.38-.13.76-.2 1.13-1.66 9.79 4.92 19.07 14.71 20.75 1.03.18 2.05.26 3.06.26 8.61 0 16.22-6.19 17.72-14.96.4-2.35.87-4.73 1.39-7.05 2.17-9.7-3.94-19.33-13.64-21.49-1.32-.3-2.64-.44-3.95-.44Zm.32 72.33c-1.35 0-2.72.15-4.09.47-9.68 2.25-15.71 11.92-13.46 21.6.07.32.15.64.23.96l.03.12v.02l.03.11v.03l.03.09v.05l.03.08v.06l.03.06.02.08v.05l.03.09v.04l.03.1v.03l.03.11v.02l.03.12c.24.98.49 1.95.74 2.92v.05l.03.05.02.09v.03l.04.1v.02c.29 1.08.59 2.16.9 3.23 2.26 7.9 9.47 13.06 17.3 13.06 1.64 0 3.3-.23 4.96-.7 9.56-2.73 15.09-12.7 12.36-22.26-.66-2.29-1.26-4.63-1.8-6.96-1.93-8.31-9.33-13.93-17.52-13.93Zm31.69 64.93c-3.97 0-7.97 1.31-11.3 4-7.72 6.23-8.93 17.53-2.73 25.27 1.9 2.36 3.87 4.67 5.88 6.92 3.55 3.97 8.47 5.99 13.41 5.99 4.27 0 8.55-1.51 11.99-4.58 7.41-6.62 8.05-18 1.43-25.42-1.59-1.78-3.17-3.63-4.67-5.49-3.56-4.4-8.76-6.69-14.01-6.69Zm56.82 44.75c-6.74 0-13.2 3.8-16.28 10.3-4.26 8.98-.43 19.72 8.56 23.97 1.35.64 2.71 1.26 4.08 1.87h.01l.11.06h.02l.11.06h.02l.1.06h.03l.1.05.04.02.09.04.04.02.09.04.04.02.08.04.05.02.07.03.06.02.07.03.06.03.07.03.06.03.06.03.07.03.05.02.07.03.05.02.08.03.05.02.08.03.04.02.09.04h.03l.1.06h.02l.11.05h.01l.12.05c.61.26 1.21.52 1.82.77 2.24.92 4.56 1.36 6.84 1.36 7.07 0 13.77-4.19 16.64-11.12 3.8-9.19-.56-19.71-9.75-23.51-2.2-.91-4.42-1.89-6.57-2.91a17.924 17.924 0 0 0-7.7-1.74Zm78.71 15.25c-.35 0-.7 0-1.04.03-2.39.14-4.82.22-7.22.23-9.94.08-17.94 8.2-17.86 18.14.08 9.89 8.12 17.86 18 17.86H258.63c1.94-.04 3.85-.09 5.77-.18h.32l.1-.02h.27l.09-.02h.18l.12-.02h.01c.32-.02.65-.04.97-.05 9.93-.57 17.51-9.07 16.94-19-.55-9.58-8.48-16.97-17.95-16.97Zm69.35-20.15c-2.97 0-5.98.74-8.75 2.28a154.49 154.49 0 0 1-6.37 3.35c-8.91 4.4-12.57 15.2-8.17 24.11 3.14 6.35 9.52 10.03 16.15 10.03 2.68 0 5.39-.6 7.96-1.86.76-.37 1.51-.75 2.26-1.14l.12-.06.12-.06h.01l.11-.06h.01l.11-.06h.02l.11-.06h.02l.1-.06h.02l.1-.07h.02l.1-.06h.02l.11-.07h.02l.11-.06h.02l.11-.07h.01l.11-.07h.01l.12-.07c1.37-.72 2.73-1.46 4.08-2.21 8.68-4.84 11.79-15.81 6.95-24.49-3.29-5.91-9.42-9.23-15.74-9.23Zm53.77-48.4c-5.66 0-11.23 2.66-14.73 7.64-1.38 1.95-2.82 3.9-4.3 5.79-6.12 7.83-4.74 19.14 3.09 25.27 3.29 2.57 7.2 3.82 11.07 3.82 5.34 0 10.62-2.36 14.17-6.89.14-.17.27-.34.4-.52l.08-.11.07-.11h.01l.07-.11h.01l.07-.11.02-.02.07-.09.02-.02.07-.09.02-.02.07-.09.02-.02.07-.09.02-.02.06-.08v-.02c.14-.17.27-.33.4-.5l.02-.02.06-.08.02-.03.06-.07.03-.04.06-.07.03-.04.05-.07.03-.04.05-.07.03-.04.05-.07.03-.04.05-.07.03-.04.05-.07.03-.04.05-.07.03-.04.05-.07.03-.04.06-.08.02-.03.06-.08.02-.03.06-.08.02-.03.06-.08.02-.02.07-.09v-.02l.08-.09v-.02s.06-.06.08-.1l.08-.11c.32-.44.64-.87.95-1.3l.07-.11.07-.11v-.02l.08-.09.02-.02.06-.08.02-.03.05-.08.03-.04.05-.07.03-.04.05-.06.04-.05.04-.06.04-.06.04-.05.05-.07.03-.04.06-.08.02-.03.07-.1c.16-.24.32-.47.49-.7 5.73-8.13 3.78-19.36-4.35-25.08a17.92 17.92 0 0 0-10.35-3.29Zm27.3-66.87c-8.67 0-16.3 6.27-17.74 15.1-.38 2.36-.83 4.73-1.34 7.07-2.09 9.72 4.09 19.29 13.81 21.38 1.28.27 2.55.41 3.8.41 8.3 0 15.76-5.77 17.58-14.21.05-.23.1-.45.14-.68l.03-.13v-.02l.02-.1v-.04l.03-.09v-.05l.02-.07v-.07l.02-.05.02-.09v-.04l.03-.1v-.02l.03-.11v-.02l.06-.26c.02-.09.04-.18.06-.28.07-.37.15-.73.22-1.1.02-.1.03-.19.05-.28 0-.05.02-.1.02-.14l.02-.14v-.02l.03-.12.02-.14v-.02l.03-.12v-.03l.03-.1v-.04l.03-.1v-.04l.03-.1v-.05l.03-.09v-.05l.03-.09v-.05l.03-.09v-.05l.03-.09v-.06l.03-.08v-.06l.03-.08v-.06l.03-.08v-.06l.03-.08v-.06l.02-.08v-.06l.02-.07v-.06l.03-.08v-.06l.02-.08v-.06l.02-.08v-.06l.02-.07v-.06l.02-.08v-.06l.02-.08v-.06l.02-.08v-.05l.02-.09v-.05l.02-.09v-.03l.02-.11v-.03l.02-.12.02-.14c.06-.38.12-.75.18-1.12 1.6-9.81-5.06-19.06-14.87-20.66-.98-.16-1.96-.24-2.92-.24Zm-4.43-72.19c-1.68 0-3.4.24-5.1.74-9.54 2.81-14.99 12.82-12.18 22.35.67 2.29 1.3 4.62 1.86 6.94 1.99 8.25 9.36 13.79 17.49 13.79 1.39 0 2.81-.16 4.23-.5 9.65-2.32 15.59-12.01 13.3-21.66l-.48-1.95-.03-.11v-.03l-.03-.08v-.06l-.03-.06-.02-.08v-.04l-.04-.1v-.03l-.04-.11c-.52-2.05-1.08-4.08-1.68-6.1-2.31-7.84-9.48-12.92-17.26-12.92Zm-35.46-62.98c-4.32 0-8.65 1.54-12.1 4.67-7.36 6.68-7.91 18.07-1.22 25.43 1.61 1.77 3.19 3.61 4.71 5.46 3.56 4.33 8.72 6.58 13.92 6.58 4.02 0 8.06-1.34 11.41-4.09 7.68-6.31 8.8-17.65 2.49-25.33l-.08-.11-.09-.11c-.21-.26-.42-.51-.63-.76l-.09-.11h-.01l-.08-.11h-.01l-.08-.1-.02-.02-.07-.08-.02-.02-.07-.08-.02-.03-.07-.08-.02-.03-.07-.08-.03-.03-.06-.08-.02-.03-.07-.08-.02-.03-.07-.08-.02-.02-.07-.08-.02-.03-.07-.08-.02-.02-.07-.08-.02-.02-.07-.08-.02-.02-.07-.08-.02-.02-.08-.09h-.01l-.09-.11c-.24-.29-.49-.57-.73-.86h-.01l-.08-.1-.02-.02-.07-.08-.03-.03-.06-.07-.03-.03-.06-.07-.03-.03-.06-.07-.03-.04-.06-.07-.04-.04-.05-.06-.04-.04-.05-.06-.04-.04-.05-.06-.04-.05-.05-.05-.05-.05-.04-.05-.05-.05-.04-.05-.05-.06-.04-.04-.05-.06-.03-.04-.06-.07-.03-.03-.06-.07-.03-.03-.07-.08h-.01c-.43-.5-.88-.99-1.32-1.48a17.968 17.968 0 0 0-13.31-5.87Zm-59.27-41.39c-7.12 0-13.86 4.25-16.69 11.26-3.73 9.22.72 19.71 9.94 23.43 2.21.89 4.43 1.86 6.59 2.86 2.45 1.14 5.03 1.68 7.57 1.68 6.79 0 13.29-3.86 16.34-10.43 4.18-9.02.27-19.72-8.75-23.9-2.72-1.26-5.47-2.45-8.26-3.58-2.21-.89-4.49-1.32-6.74-1.32Z" style="fill:url(#b)"/></svg>