<svg xmlns="http://www.w3.org/2000/svg" viewBox="0 0 512 512"><defs><linearGradient id="a" x1="128.57" x2="383.42" y1="383.44" y2="128.59" gradientUnits="userSpaceOnUse"><stop offset="0" stop-color="#fbc0ff"/><stop offset=".13" stop-color="#f1befd"/><stop offset=".35" stop-color="#d8baf9"/><stop offset=".63" stop-color="#aeb4f1"/><stop offset=".96" stop-color="#75abe8"/><stop offset=".99" stop-color="#6faae7"/></linearGradient></defs><path d="M429.79 207.39c-8.17-29.13-23.51-55.27-43.99-76.43-17.03 6.59-36.79 5.72-53.84-4.1-17.26-9.94-27.95-26.86-30.59-45.12-14.5-3.75-29.7-5.74-45.38-5.74s-29.76 1.86-43.77 5.34c-2.54 18.41-13.26 35.51-30.64 45.52-17.42 10.03-37.68 10.73-54.96 3.67-20.7 21.23-36.19 47.53-44.42 76.86 14.27 11.41 23.41 28.94 23.41 48.61 0 19.67-9.14 37.19-23.41 48.61 8.37 29.84 24.26 56.55 45.51 77.97 17.04-6.6 36.81-5.73 53.87 4.09 16.88 9.72 27.48 26.12 30.4 43.92 14.09 3.52 28.84 5.4 44.02 5.4s31.06-2.02 45.63-5.81c3.01-17.64 13.57-33.87 30.33-43.52 16.69-9.61 35.96-10.66 52.74-4.52 21.04-21.35 36.78-47.9 45.09-77.55-14.27-11.41-23.41-28.94-23.41-48.61 0-19.67 9.14-37.19 23.41-48.61ZM256 339.07c-46 0-83.29-37.19-83.29-83.08S210 172.91 256 172.91s83.29 37.19 83.29 83.08S302 339.07 256 339.07Z" style="fill:url(#a)"/></svg>